<?xml version="1.0" encoding="UTF-8"?> <svg xmlns="http://www.w3.org/2000/svg" xmlns:xlink="http://www.w3.org/1999/xlink" xmlns:xodm="http://www.corel.com/coreldraw/odm/2003" xml:space="preserve" width="19.1892mm" height="19.1892mm" version="1.1" style="shape-rendering:geometricPrecision; text-rendering:geometricPrecision; image-rendering:optimizeQuality; fill-rule:evenodd; clip-rule:evenodd" viewBox="0 0 1399.88 1399.88"> <defs> <style type="text/css"> .str0 {stroke:#00A0FF;stroke-width:154.42;stroke-linecap:round;stroke-miterlimit:22.9256} .fil2 {fill:none;fill-rule:nonzero} .fil0 {fill:#FAFAFA} .fil1 {fill:black;fill-rule:nonzero} </style> </defs> <g id="Layer_x0020_1"> <metadata id="CorelCorpID_0Corel-Layer"></metadata> <circle class="fil0" cx="699.94" cy="699.94" r="699.94"></circle> <g id="logo_kyivstar.svg"> <g> <g> <path class="fil1" d="M699.94 161.67l0 279.88 0 -279.88zm0 0l0 0 0 0z"></path> <path id="_1" class="fil2 str0" d="M699.94 161.67l0 279.88m0 -279.88l0 0 0 0z"></path> </g> <g> <path class="fil1" d="M1213.94 535.11l-266.17 86.48 266.17 -86.48zm0 0l0 0 0 0z"></path> <path id="_1_0" class="fil2 str0" d="M1213.94 535.11l-266.17 86.48m266.17 -86.48l0 0 0 0z"></path> </g> <g> <path class="fil1" d="M1017.61 1139.35l-164.51 -226.42 164.51 226.42zm0 0l0 0 0 0z"></path> <path id="_1_1" class="fil2 str0" d="M1017.61 1139.35l-164.51 -226.42m164.51 226.42l0 0 0 0z"></path> </g> <g> <path class="fil1" d="M382.27 1139.35l164.51 -226.42 -164.51 226.42zm0 0l0 0 0 0z"></path> <path id="_1_2" class="fil2 str0" d="M382.27 1139.35l164.51 -226.42m-164.51 226.42l0 0 0 0z"></path> </g> <g> <path class="fil1" d="M185.95 535.11l266.17 86.48 -266.17 -86.48zm0 0l0 0 0 0z"></path> <path id="_1_3" class="fil2 str0" d="M185.95 535.11l266.17 86.48m-266.17 -86.48l0 0 0 0z"></path> </g> </g> </g> </g> </svg> 