<svg width="162" height="209" viewBox="0 0 162 209" fill="none" xmlns="http://www.w3.org/2000/svg">
<path d="M133.349 2.09961C149.949 2.49974 162.548 45.6001 161.448 98.5C160.348 151.4 145.948 193.9 129.248 193.6C126.648 193.5 124.148 192.399 121.748 190.399C109.048 179.499 100.148 141.799 101.148 97.1992C102.148 52.5999 112.548 15.3004 125.748 5C128.148 3 130.749 1.99961 133.349 2.09961ZM39.3496 0C46.9494 0.200272 53.7491 9.30018 58.749 24.2998C47.4491 28.4 38.049 58.6002 37.249 95.5C36.549 132.6 44.6496 163.3 55.8496 167.7C50.1496 182.7 42.949 191.7 35.249 191.5C32.6491 191.4 30.149 190.3 27.749 188.3C14.9492 177.4 6.14942 139.699 7.14941 95.0996C8.14946 50.5002 18.5492 13.2007 31.749 2.90039C34.249 1.00039 36.7496 0 39.3496 0ZM136.148 69.6992C135.448 69.5993 134.648 69.9 133.948 70.5C137.648 73.6 140.248 84.6994 139.948 97.6992C139.648 110.799 136.648 121.7 132.748 124.7C133.448 125.3 134.148 125.6 134.948 125.7C139.848 125.8 144.049 113.4 144.349 97.8994C144.749 82.3995 141.048 69.7992 136.148 69.6992Z" fill="#464646"/>
<path d="M65.9492 24.2002C67.9491 24.2003 69.7489 25.1006 71.5488 26.6006C61.5489 34.4008 53.7488 62.5009 53.0488 96.1006C52.3489 129.7 58.9494 158.1 68.6494 166.3C67.1495 167.5 65.5491 168.2 63.9492 168.4C61.4492 193.6 42.6491 208.9 26.4492 208.5C13.2493 208.2 4.04866 198.301 0.348633 193.601C-0.251342 192.801 -0.0508916 191.701 0.749023 191.101C1.54902 190.601 2.54941 190.7 3.14941 191.4C6.2496 195.401 14.8492 204.7 26.5488 205C41.1488 205.4 58.1486 191.3 60.3486 167.9C52.9488 165.2 46.849 150.9 43.749 130.9C42.149 120.5 41.3494 108.5 41.6494 95.7998C41.9494 83.1 43.249 71.2999 45.249 61C49.549 38.9002 57.3493 24.0002 65.9492 24.2002ZM105.749 24.8994C107.749 24.8994 109.55 25.7998 111.35 27.2998C101.35 35.0998 93.5496 63.1998 92.8496 96.7998C92.0496 130.4 98.6496 158.8 108.35 167C106.45 168.4 104.549 169.2 102.649 169.2C90.0494 168.9 80.5492 136.4 81.4492 96.5996C82.3493 56.6999 93.1491 24.6997 105.749 24.8994ZM85.8486 24.6006C87.8486 24.6006 89.6492 25.5 91.4492 27C81.4492 34.8 73.6492 62.9001 72.9492 96.5C72.1492 130 78.8492 158.401 88.4492 166.601C86.5492 168.001 84.649 168.8 82.749 168.8C74.249 168.6 67.0494 153.5 63.6494 131.3C62.0494 120.9 61.2488 108.9 61.5488 96.2002C61.8488 83.5003 63.1494 71.7004 65.1494 61.4004C69.4494 39.3007 77.2488 24.401 85.8486 24.6006Z" fill="black"/>
</svg>
